<svg width="36" height="36" viewBox="0 0 36 36" fill="none" xmlns="http://www.w3.org/2000/svg">
<path d="M21 14.475V12.675C21.825 12.325 22.6688 12.0625 23.5312 11.8875C24.3937 11.7125 25.3 11.625 26.25 11.625C26.9 11.625 27.5375 11.675 28.1625 11.775C28.7875 11.875 29.4 12 30 12.15V13.8C29.4 13.575 28.7938 13.4063 28.1813 13.2938C27.5688 13.1813 26.925 13.125 26.25 13.125C25.3 13.125 24.3875 13.2438 23.5125 13.4813C22.6375 13.7188 21.8 14.05 21 14.475ZM21 22.725V20.8875C21.825 20.5375 22.6688 20.2813 23.5312 20.1188C24.3937 19.9563 25.3 19.875 26.25 19.875C26.9 19.875 27.5375 19.925 28.1625 20.025C28.7875 20.125 29.4 20.25 30 20.4V22.05C29.4 21.825 28.7938 21.6562 28.1813 21.5438C27.5688 21.4313 26.925 21.375 26.25 21.375C25.3 21.375 24.3875 21.4875 23.5125 21.7125C22.6375 21.9375 21.8 22.275 21 22.725ZM21 18.6V16.8C21.825 16.45 22.6688 16.1875 23.5312 16.0125C24.3937 15.8375 25.3 15.75 26.25 15.75C26.9 15.75 27.5375 15.8 28.1625 15.9C28.7875 16 29.4 16.125 30 16.275V17.925C29.4 17.7 28.7938 17.5312 28.1813 17.4188C27.5688 17.3063 26.925 17.25 26.25 17.25C25.3 17.25 24.3875 17.3688 23.5125 17.6063C22.6375 17.8438 21.8 18.175 21 18.6ZM9.3 24.75C10.65 24.75 11.9563 24.9062 13.2188 25.2188C14.4812 25.5312 15.725 26 16.95 26.625V10.6125C15.825 9.8625 14.6063 9.28125 13.2938 8.86875C11.9813 8.45625 10.65 8.25 9.3 8.25C8.35 8.25 7.41875 8.36875 6.50625 8.60625C5.59375 8.84375 4.675 9.1375 3.75 9.4875V25.7625C4.525 25.4125 5.40625 25.1562 6.39375 24.9938C7.38125 24.8313 8.35 24.75 9.3 24.75ZM19.2 26.625C20.45 26 21.675 25.5312 22.875 25.2188C24.075 24.9062 25.35 24.75 26.7 24.75C27.65 24.75 28.6313 24.825 29.6438 24.975C30.6563 25.125 31.525 25.325 32.25 25.575V9.4875C31.4 9.0625 30.5 8.75 29.55 8.55C28.6 8.35 27.65 8.25 26.7 8.25C25.35 8.25 24.0438 8.45625 22.7812 8.86875C21.5187 9.28125 20.325 9.8625 19.2 10.6125V26.625ZM18.075 30C16.8 29.05 15.4125 28.3188 13.9125 27.8063C12.4125 27.2938 10.875 27.0375 9.3 27.0375C8.375 27.0375 7.475 27.15 6.6 27.375C5.725 27.6 4.85 27.875 3.975 28.2C3.4 28.475 2.84375 28.4375 2.30625 28.0875C1.76875 27.7375 1.5 27.2375 1.5 26.5875V9.225C1.5 8.85 1.5875 8.50625 1.7625 8.19375C1.9375 7.88125 2.2 7.6375 2.55 7.4625C3.6 6.9625 4.69375 6.59375 5.83125 6.35625C6.96875 6.11875 8.125 6 9.3 6C10.875 6 12.4062 6.2125 13.8937 6.6375C15.3812 7.0625 16.775 7.7125 18.075 8.5875C19.35 7.7125 20.7188 7.0625 22.1813 6.6375C23.6438 6.2125 25.15 6 26.7 6C27.875 6 29.025 6.11875 30.15 6.35625C31.275 6.59375 32.3625 6.9625 33.4125 7.4625C33.7625 7.6375 34.0312 7.88125 34.2188 8.19375C34.4062 8.50625 34.5 8.85 34.5 9.225V26.5875C34.5 27.2875 34.2188 27.8188 33.6562 28.1813C33.0938 28.5438 32.5375 28.55 31.9875 28.2C31.1375 27.85 30.275 27.5687 29.4 27.3562C28.525 27.1437 27.625 27.0375 26.7 27.0375C25.125 27.0375 23.6125 27.3 22.1625 27.825C20.7125 28.35 19.35 29.075 18.075 30Z" fill="url(#paint0_linear_20_194)"/>
<defs>
<linearGradient id="paint0_linear_20_194" x1="18" y1="6" x2="18" y2="30" gradientUnits="userSpaceOnUse">
<stop stop-color="#60B596"/>
<stop offset="1" stop-color="#4C9595"/>
</linearGradient>
</defs>
</svg>
