<svg width="42" height="42" viewBox="0 0 42 42" fill="none" xmlns="http://www.w3.org/2000/svg">
<path d="M19.4234 0.0411329C16.3104 0.336592 13.9941 0.993167 11.374 2.32273C8.26917 3.90672 5.48472 6.4017 3.44771 9.42195C2.59349 10.7023 1.54213 12.8608 1.03288 14.3873C0.630404 15.6184 0.301855 17.0218 0.104725 18.4088C-0.0349084 19.3773 -0.0349084 22.6109 0.104725 23.5793C0.449702 26.0005 1.09037 28.1179 2.09245 30.1451C3.21773 32.4431 4.32658 33.9861 6.15003 35.8163C7.96527 37.6218 9.53409 38.7462 11.7436 39.8296C13.2878 40.5846 14.2816 40.954 15.8504 41.3479C19.9573 42.382 24.0806 42.185 28.0889 40.7652C29.3128 40.3302 31.4319 39.2715 32.5243 38.541C35.5223 36.5467 38.0029 33.7973 39.6374 30.6375C41.1241 27.7814 41.8633 24.9417 41.9865 21.6917C42.1097 18.1954 41.3869 14.8633 39.8263 11.7282C38.8078 9.67637 37.6661 8.05955 36.0644 6.40991C34.2903 4.5715 32.549 3.30759 30.2245 2.15859C27.7932 0.960338 25.5262 0.31197 22.8321 0.0657544C21.9943 -0.00811025 20.0969 -0.0245246 19.4234 0.0411329ZM33.1321 11.761C33.625 12.0318 34.0356 12.475 34.3067 13.0249L34.4956 13.4024V20.9941V28.5857L34.3067 28.9633C34.0356 29.5131 33.625 29.9563 33.1321 30.2272L32.6886 30.4734H20.984H9.27946L8.83592 30.2272C8.3431 29.9563 7.93241 29.5131 7.66136 28.9633L7.47244 28.5857V20.9941V13.4024L7.70243 12.9346C7.98169 12.3683 8.5238 11.8677 9.10697 11.6461C9.51766 11.4819 9.73122 11.4819 21.1072 11.4984L32.6886 11.5148L33.1321 11.761Z" fill="url(#paint0_linear_31_3)"/>
<path d="M11.8667 13.7226C12.1296 13.9688 20.8279 20.8382 20.9347 20.8793C21.0168 20.9121 29.5427 14.2561 30.1012 13.7226C30.1998 13.6241 28.9102 13.6077 20.984 13.6077C13.0906 13.6077 11.7682 13.6241 11.8667 13.7226Z" fill="url(#paint1_linear_31_3)"/>
<path d="M9.64905 21.4291C9.64905 27.7979 9.65726 28.118 9.7969 28.2411C9.93653 28.3724 10.8318 28.3806 21.0004 28.3806C31.6126 28.3806 32.0561 28.3724 32.1875 28.2329C32.3107 28.0934 32.3189 27.5271 32.3025 21.4291L32.2779 14.7731L30.553 16.1519C23.6781 21.6179 21.4275 23.3742 21.2222 23.4153C21.0908 23.4481 20.8772 23.4481 20.754 23.4153C20.6308 23.3906 19.1934 22.3155 17.5671 21.027C15.2262 19.1639 10.9386 15.7744 9.83796 14.8962L9.64905 14.7485V21.4291Z" fill="url(#paint2_linear_31_3)"/>
<defs>
<linearGradient id="paint0_linear_31_3" x1="21" y1="42" x2="21" y2="0" gradientUnits="userSpaceOnUse">
<stop stop-color="#60B596"/>
<stop offset="1" stop-color="#4C9595"/>
</linearGradient>
<linearGradient id="paint1_linear_31_3" x1="20.984" y1="20.8794" x2="20.984" y2="13.6077" gradientUnits="userSpaceOnUse">
<stop stop-color="#60B596"/>
<stop offset="1" stop-color="#4C9595"/>
</linearGradient>
<linearGradient id="paint2_linear_31_3" x1="20.9789" y1="28.3806" x2="20.9789" y2="14.7485" gradientUnits="userSpaceOnUse">
<stop stop-color="#60B596"/>
<stop offset="1" stop-color="#4C9595"/>
</linearGradient>
</defs>
</svg>
