<svg width="42" height="42" viewBox="0 0 42 42" fill="none" xmlns="http://www.w3.org/2000/svg">
<path d="M7.95383 30.9146C7.90758 31.0219 7.74344 31.0536 7.59391 30.9802C7.44159 30.9099 7.35604 30.7641 7.40542 30.6568C7.45063 30.5466 7.61512 30.5163 7.76709 30.5894C7.91976 30.66 8.00669 30.8073 7.95383 30.9146Z" fill="url(#paint0_linear_27_2)"/>
<path d="M8.80444 31.8873C8.70429 31.9825 8.50851 31.9383 8.37566 31.7879C8.2383 31.6377 8.21257 31.437 8.31411 31.3404C8.41739 31.2452 8.60726 31.2897 8.74497 31.4399C8.88234 31.5917 8.90911 31.7911 8.80444 31.8873Z" fill="url(#paint1_linear_27_2)"/>
<path d="M9.63244 33.1275C9.50378 33.2191 9.29338 33.1332 9.16332 32.9417C9.03466 32.7503 9.03466 32.5206 9.16611 32.4286C9.29652 32.3366 9.50378 32.4194 9.63558 32.6094C9.7639 32.8037 9.7639 33.0337 9.63244 33.1275Z" fill="url(#paint2_linear_27_2)"/>
<path d="M10.7668 34.3254C10.6517 34.4556 10.4065 34.4206 10.2271 34.2431C10.0435 34.0694 9.99236 33.823 10.1078 33.6929C10.2243 33.5624 10.4709 33.5991 10.6517 33.7753C10.8339 33.9485 10.8896 34.1967 10.7668 34.3254Z" fill="url(#paint3_linear_27_2)"/>
<path d="M12.3317 35.0212C12.2809 35.1899 12.0448 35.2665 11.8069 35.1949C11.5694 35.121 11.414 34.9235 11.462 34.7531C11.5114 34.5834 11.7485 34.5035 11.9881 34.5801C12.2253 34.6536 12.3811 34.8497 12.3317 35.0212Z" fill="url(#paint4_linear_27_2)"/>
<path d="M14.0503 35.1502C14.0562 35.3277 13.8545 35.475 13.6048 35.4778C13.3538 35.4839 13.1507 35.3402 13.1479 35.1655C13.1479 34.9861 13.3451 34.8403 13.5961 34.836C13.8458 34.831 14.0503 34.9737 14.0503 35.1502Z" fill="url(#paint5_linear_27_2)"/>
<path d="M15.6496 34.8711C15.6795 35.0443 15.506 35.2223 15.2581 35.2693C15.0143 35.3153 14.7886 35.2084 14.7576 35.0365C14.7274 34.8589 14.9041 34.681 15.1475 34.635C15.3958 34.5908 15.618 34.6949 15.6496 34.8711Z" fill="url(#paint6_linear_27_2)"/>
<path fill-rule="evenodd" clip-rule="evenodd" d="M21.0002 0C9.40362 0 0 9.63955 0 21.5315C0 31.0448 6.01719 39.1159 14.3612 41.9631C15.4107 42.1624 15.796 41.4959 15.796 40.9272C15.796 40.4138 15.7766 38.7176 15.7675 36.9184C9.92526 38.2209 8.69246 34.3779 8.69246 34.3779C7.73718 31.8892 6.36078 31.2274 6.36078 31.2274C4.45543 29.891 6.50439 29.9185 6.50439 29.9185C8.61318 30.07 9.72356 32.1373 9.72356 32.1373C11.5966 35.4291 14.6363 34.4774 15.8346 33.9272C16.0231 32.536 16.5674 31.5854 17.1679 31.048C12.5035 30.5036 7.60017 28.6573 7.60017 20.4069C7.60017 18.0561 8.42052 16.1353 9.76389 14.6274C9.54585 14.0848 8.82705 11.8951 9.96733 8.92929C9.96733 8.92929 11.7308 8.3506 15.7439 11.1364C17.419 10.6593 19.2155 10.4201 21.0002 10.4119C22.7849 10.4201 24.5827 10.6593 26.261 11.1364C30.2692 8.3506 32.0302 8.92929 32.0302 8.92929C33.1733 11.8951 32.4542 14.0848 32.2361 14.6274C33.5826 16.1353 34.3974 18.0561 34.3974 20.4069C34.3974 28.6769 29.4847 30.4979 24.8084 31.0309C25.5617 31.6991 26.2328 33.0095 26.2328 35.0183C26.2328 37.8989 26.2085 40.2177 26.2085 40.9272C26.2085 41.5002 26.5865 42.1716 27.651 41.9602C35.9905 39.1098 42 31.0416 42 21.5315C42 9.63955 32.5978 0 21.0002 0Z" fill="url(#paint7_linear_27_2)"/>
<defs>
<linearGradient id="paint0_linear_27_2" x1="7.68039" y1="31.02" x2="7.68039" y2="30.5495" gradientUnits="userSpaceOnUse">
<stop stop-color="#60B596"/>
<stop offset="1" stop-color="#4C9595"/>
</linearGradient>
<linearGradient id="paint1_linear_27_2" x1="8.56033" y1="31.9375" x2="8.56033" y2="31.2903" gradientUnits="userSpaceOnUse">
<stop stop-color="#60B596"/>
<stop offset="1" stop-color="#4C9595"/>
</linearGradient>
<linearGradient id="paint2_linear_27_2" x1="9.3993" y1="33.1643" x2="9.3993" y2="32.391" gradientUnits="userSpaceOnUse">
<stop stop-color="#60B596"/>
<stop offset="1" stop-color="#4C9595"/>
</linearGradient>
<linearGradient id="paint3_linear_27_2" x1="10.4394" y1="34.4038" x2="10.4394" y2="33.6148" gradientUnits="userSpaceOnUse">
<stop stop-color="#60B596"/>
<stop offset="1" stop-color="#4C9595"/>
</linearGradient>
<linearGradient id="paint4_linear_27_2" x1="11.8971" y1="35.2217" x2="11.8971" y2="34.5509" gradientUnits="userSpaceOnUse">
<stop stop-color="#60B596"/>
<stop offset="1" stop-color="#4C9595"/>
</linearGradient>
<linearGradient id="paint5_linear_27_2" x1="13.5992" y1="35.478" x2="13.5992" y2="34.8359" gradientUnits="userSpaceOnUse">
<stop stop-color="#60B596"/>
<stop offset="1" stop-color="#4C9595"/>
</linearGradient>
<linearGradient id="paint6_linear_27_2" x1="15.2036" y1="35.28" x2="15.2036" y2="34.6249" gradientUnits="userSpaceOnUse">
<stop stop-color="#60B596"/>
<stop offset="1" stop-color="#4C9595"/>
</linearGradient>
<linearGradient id="paint7_linear_27_2" x1="21" y1="42" x2="21" y2="0" gradientUnits="userSpaceOnUse">
<stop stop-color="#60B596"/>
<stop offset="1" stop-color="#4C9595"/>
</linearGradient>
</defs>
</svg>
