<svg width="36" height="36" viewBox="0 0 36 36" fill="none" xmlns="http://www.w3.org/2000/svg">
<path d="M17.8125 33L24.6 15H27.675L34.65 33H31.3875L29.85 28.275H22.65L20.8875 33H17.8125ZM23.475 25.65H28.8L26.175 18.375H26.1L23.475 25.65ZM6 28.5L3.9375 26.4375L11.5875 18.7875C10.6375 17.6875 9.79375 16.5813 9.05625 15.4688C8.31875 14.3562 7.675 13.2 7.125 12H10.3875C10.8125 12.825 11.2812 13.6062 11.7938 14.3438C12.3063 15.0813 12.8875 15.8375 13.5375 16.6125C14.6625 15.4375 15.6 14.2188 16.35 12.9562C17.1 11.6937 17.7375 10.375 18.2625 9H1.5V6H12V3H15V6H25.5V9H21.2625C20.7125 10.725 19.9812 12.4187 19.0687 14.0812C18.1562 15.7437 17.0375 17.325 15.7125 18.825L19.3875 22.5375L18.2625 25.575L13.5 21L6 28.5Z" fill="url(#paint0_linear_20_192)"/>
<defs>
<linearGradient id="paint0_linear_20_192" x1="18.075" y1="3" x2="18.075" y2="33" gradientUnits="userSpaceOnUse">
<stop stop-color="#60B596"/>
<stop offset="1" stop-color="#4C9595"/>
</linearGradient>
</defs>
</svg>
