<svg width="312" height="50" viewBox="0 0 312 50" fill="none" xmlns="http://www.w3.org/2000/svg">
<path d="M0.312012 39V5.83199H17.544L16.92 10.44H6.55201V20.52H15.576V25.128H6.55201V39H0.312012Z" fill="#212121"/>
<path d="M38.964 25.704C38.964 25.992 38.916 26.808 38.82 28.152H24.468C24.66 30.712 25.204 32.52 26.1 33.576C26.996 34.632 28.244 35.16 29.844 35.16C30.868 35.16 31.828 34.984 32.724 34.632C33.62 34.28 34.58 33.736 35.604 33L38.1 36.408C35.572 38.616 32.676 39.72 29.412 39.72C25.86 39.72 23.124 38.552 21.204 36.216C19.284 33.88 18.324 30.632 18.324 26.472C18.324 22.376 19.236 19.096 21.06 16.632C22.916 14.136 25.492 12.888 28.788 12.888C31.988 12.888 34.484 13.992 36.276 16.2C38.068 18.408 38.964 21.576 38.964 25.704ZM33.06 23.976C33.06 21.672 32.724 19.96 32.052 18.84C31.38 17.688 30.308 17.112 28.836 17.112C27.492 17.112 26.452 17.672 25.716 18.792C25.012 19.88 24.596 21.704 24.468 24.264H33.06V23.976Z" fill="#212121"/>
<path d="M49.3789 39.72C47.5229 39.72 46.0669 39.176 45.0109 38.088C43.9869 37 43.4749 35.48 43.4749 33.528V3.43199L49.4749 2.80799V33.336C49.4749 34.36 49.9069 34.872 50.7709 34.872C51.1869 34.872 51.5869 34.808 51.9709 34.68L53.1709 38.808C52.1149 39.416 50.8509 39.72 49.3789 39.72Z" fill="#212121"/>
<path d="M62.3164 39.72C60.4604 39.72 59.0044 39.176 57.9484 38.088C56.9244 37 56.4124 35.48 56.4124 33.528V3.43199L62.4124 2.80799V33.336C62.4124 34.36 62.8444 34.872 63.7084 34.872C64.1244 34.872 64.5244 34.808 64.9084 34.68L66.1084 38.808C65.0524 39.416 63.7884 39.72 62.3164 39.72Z" fill="#212121"/>
<path d="M75.5899 13.608V39H69.5899V13.608H75.5899ZM72.6139 0.839988C73.7019 0.839988 74.5819 1.19199 75.2539 1.89599C75.9579 2.56799 76.3099 3.43199 76.3099 4.48799C76.3099 5.54399 75.9579 6.42399 75.2539 7.12799C74.5819 7.79999 73.7019 8.13599 72.6139 8.13599C71.5259 8.13599 70.6299 7.79999 69.9259 7.12799C69.2539 6.42399 68.9179 5.54399 68.9179 4.48799C68.9179 3.43199 69.2539 2.56799 69.9259 1.89599C70.6299 1.19199 71.5259 0.839988 72.6139 0.839988Z" fill="#212121"/>
<path d="M94.254 12.888C97.07 12.888 99.166 14.056 100.542 16.392C101.95 18.696 102.654 21.976 102.654 26.232C102.654 30.328 101.854 33.608 100.254 36.072C98.654 38.504 96.446 39.72 93.63 39.72C91.294 39.72 89.39 38.808 87.918 36.984V48.744L81.918 49.416V13.608H87.198L87.486 16.68C89.278 14.152 91.534 12.888 94.254 12.888ZM91.95 35.112C93.39 35.112 94.494 34.424 95.262 33.048C96.03 31.64 96.414 29.384 96.414 26.28C96.414 23.08 96.078 20.808 95.406 19.464C94.734 18.12 93.726 17.448 92.382 17.448C90.654 17.448 89.166 18.552 87.918 20.76V32.568C89.006 34.264 90.35 35.112 91.95 35.112Z" fill="#212121"/>
<path d="M127.089 25.704C127.089 25.992 127.041 26.808 126.945 28.152H112.593C112.785 30.712 113.329 32.52 114.225 33.576C115.121 34.632 116.369 35.16 117.969 35.16C118.993 35.16 119.953 34.984 120.849 34.632C121.745 34.28 122.705 33.736 123.729 33L126.225 36.408C123.697 38.616 120.801 39.72 117.537 39.72C113.985 39.72 111.249 38.552 109.329 36.216C107.409 33.88 106.449 30.632 106.449 26.472C106.449 22.376 107.361 19.096 109.185 16.632C111.041 14.136 113.617 12.888 116.913 12.888C120.113 12.888 122.609 13.992 124.401 16.2C126.193 18.408 127.089 21.576 127.089 25.704ZM121.185 23.976C121.185 21.672 120.849 19.96 120.177 18.84C119.505 17.688 118.433 17.112 116.961 17.112C115.617 17.112 114.577 17.672 113.841 18.792C113.137 19.88 112.721 21.704 112.593 24.264H121.185V23.976Z" fill="#212121"/>
<path d="M171.618 39H165.666L164.946 25.032C164.69 19.656 164.562 15.832 164.562 13.56L164.61 11.544L159.378 35.4H153.57L148.05 11.496C148.082 12.488 148.098 13.976 148.098 15.96C148.098 19.32 148.034 22.408 147.906 25.224L147.234 39H141.33L143.634 5.83199H151.554L156.594 29.16L161.298 5.83199H169.314L171.618 39Z" fill="#212121"/>
<path d="M196.136 25.704C196.136 25.992 196.088 26.808 195.992 28.152H181.64C181.832 30.712 182.376 32.52 183.272 33.576C184.168 34.632 185.416 35.16 187.016 35.16C188.04 35.16 189 34.984 189.896 34.632C190.792 34.28 191.752 33.736 192.776 33L195.272 36.408C192.744 38.616 189.848 39.72 186.584 39.72C183.032 39.72 180.296 38.552 178.376 36.216C176.456 33.88 175.496 30.632 175.496 26.472C175.496 22.376 176.408 19.096 178.232 16.632C180.088 14.136 182.664 12.888 185.96 12.888C189.16 12.888 191.656 13.992 193.448 16.2C195.24 18.408 196.136 21.576 196.136 25.704ZM190.232 23.976C190.232 21.672 189.896 19.96 189.224 18.84C188.552 17.688 187.48 17.112 186.008 17.112C184.664 17.112 183.624 17.672 182.888 18.792C182.184 19.88 181.768 21.704 181.64 24.264H190.232V23.976Z" fill="#212121"/>
<path d="M206.551 39.72C204.695 39.72 203.239 39.176 202.183 38.088C201.159 37 200.647 35.48 200.647 33.528V3.43199L206.647 2.80799V33.336C206.647 34.36 207.079 34.872 207.943 34.872C208.359 34.872 208.759 34.808 209.143 34.68L210.343 38.808C209.287 39.416 208.023 39.72 206.551 39.72Z" fill="#212121"/>
<path d="M223.19 12.888C226.614 12.888 229.286 14.04 231.206 16.344C233.126 18.648 234.086 21.96 234.086 26.28C234.086 30.44 233.11 33.72 231.158 36.12C229.238 38.52 226.582 39.72 223.19 39.72C219.766 39.72 217.078 38.552 215.126 36.216C213.206 33.848 212.246 30.536 212.246 26.28C212.246 22.088 213.206 18.808 215.126 16.44C217.078 14.072 219.766 12.888 223.19 12.888ZM223.19 17.448C221.622 17.448 220.454 18.152 219.686 19.56C218.918 20.936 218.534 23.176 218.534 26.28C218.534 29.416 218.918 31.688 219.686 33.096C220.454 34.472 221.622 35.16 223.19 35.16C224.758 35.16 225.926 34.456 226.694 33.048C227.462 31.64 227.846 29.384 227.846 26.28C227.846 23.144 227.462 20.888 226.694 19.512C225.926 18.136 224.758 17.448 223.19 17.448Z" fill="#212121"/>
<path d="M265.043 12.12L267.107 16.44L253.091 23.016L267.107 29.544L265.043 33.912L248.195 25.752V20.28L265.043 12.12Z" fill="#212121"/>
<path d="M282.558 0.0239868L287.646 1.17599L277.422 44.184L272.286 43.032L282.558 0.0239868Z" fill="#212121"/>
<path d="M294.884 12.12L311.732 20.28V25.752L294.884 33.912L292.82 29.544L306.836 23.016L292.82 16.44L294.884 12.12Z" fill="#212121"/>
</svg>
