<svg width="48" height="48" viewBox="0 0 48 48" fill="none" xmlns="http://www.w3.org/2000/svg">
<path d="M31.4063 0.993748C23.2875 5.18437 16.4156 9.76875 13.8656 12.6656C11.85 14.9719 10.875 17.325 10.875 19.875C10.875 23.9625 13.6313 27.5719 17.8313 28.9781C20.5875 29.9062 24.8344 30.4781 30.5906 30.7125L32.1563 30.7781V39.3844V48H33.8438H35.5313V39.375V30.75H36.3281H37.125V29.7187V28.6969L36.3094 28.6687L35.4844 28.6406L35.4281 27.5625C35.3906 26.9719 35.3625 25.3687 35.3625 24V21.5156L35.6344 22.3594C36.1406 23.9719 36.45 24.3937 36.3375 23.3156C36.2344 22.4625 35.8219 20.0625 35.7094 19.7062C35.5969 19.3687 35.1656 19.05 34.5656 18.8531C34.1156 18.7031 34.0219 18.5156 34.1438 18.0375C34.275 17.5594 34.1719 16.9969 33.9281 16.8656C33.6844 16.7437 33.2531 16.8375 33.0469 17.0625C32.9063 17.2219 32.8875 17.3531 32.9438 18C33.0281 18.9 32.9813 18.9375 32.1375 18.7594C31.0969 18.5437 30.9563 18.4031 30.5719 17.0906C30.3844 16.4531 30.375 16.3875 30.5156 16.1156C30.6844 15.7969 30.6469 15.6562 30.4313 15.8344C30.3188 15.9281 30.2719 15.9 30.1688 15.6844C30.0094 15.3375 29.6531 15.2812 29.5781 15.5906C29.5125 15.825 29.8875 17.4 30.1969 18.2437C30.3563 18.675 30.5156 18.8625 31.1063 19.3687C31.5094 19.7062 31.8844 20.0906 31.9594 20.2312C32.0438 20.3906 32.1188 21.0094 32.1656 21.9656C32.2313 23.3906 32.25 23.475 32.475 23.7094L32.7188 23.9625V25.9312C32.7188 27.6094 32.6906 27.9375 32.55 28.2187L32.3906 28.5469L31.6406 28.5187C29.0156 28.425 25.4156 28.0219 23.3906 27.6C20.4375 26.9719 18.5625 26.0812 17.1938 24.6469C15.8156 23.1937 15.1688 21.7219 15.1688 20.0156C15.1594 17.0906 17.0813 14.5969 21.75 11.4937C25.2844 9.15 30.0281 6.6375 35.2313 4.35937C36.0656 3.99375 36.45 3.7875 36.3938 3.7125C36.225 3.4875 33.3563 -1.90735e-06 33.3469 -1.90735e-06C33.3375 -1.90735e-06 32.4656 0.449998 31.4063 0.993748ZM34.1156 24.7687C34.2656 25.6219 34.5938 28.1156 34.5938 28.3687C34.5938 28.5844 34.5656 28.5937 33.9375 28.5937C33.3 28.5937 33.2813 28.5844 33.3188 28.3781C33.4875 27.6 33.5813 26.9719 33.7031 25.7344C33.7781 24.9562 33.8438 24.3 33.8438 24.2531C33.8438 24.2156 33.8813 24.1875 33.9281 24.1875C33.975 24.1875 34.0594 24.45 34.1156 24.7687Z" fill="#636363"/>
</svg>
