<svg width="317" height="63" viewBox="0 0 317 63" fill="none" xmlns="http://www.w3.org/2000/svg">
<path d="M2.544 48V14.784H19.056L18.336 19.728H9.36V29.424H17.184V34.368H9.36V48H2.544ZM38.8399 34.704C38.8399 35.056 38.7919 35.904 38.6959 37.248H25.6879C25.8159 39.744 26.2479 41.472 26.9839 42.432C27.7519 43.392 28.8079 43.872 30.1519 43.872C31.0799 43.872 31.9439 43.712 32.7439 43.392C33.5439 43.04 34.4079 42.512 35.3359 41.808L38.0239 45.408C35.7199 47.648 32.9519 48.768 29.7199 48.768C26.2959 48.768 23.6719 47.6 21.8479 45.264C20.0239 42.928 19.1119 39.664 19.1119 35.472C19.1119 31.28 19.9759 27.952 21.7039 25.488C23.4319 23.024 25.9119 21.792 29.1439 21.792C32.1839 21.792 34.5519 22.896 36.2479 25.104C37.9759 27.28 38.8399 30.48 38.8399 34.704ZM32.5039 32.832C32.5039 30.528 32.2479 28.864 31.7359 27.84C31.2239 26.784 30.3759 26.256 29.1919 26.256C28.1039 26.256 27.2719 26.768 26.6959 27.792C26.1519 28.816 25.8159 30.624 25.6879 33.216H32.5039V32.832ZM48.2393 48.768C46.3833 48.768 44.9113 48.208 43.8233 47.088C42.7673 45.968 42.2393 44.448 42.2393 42.528V12.432L48.7673 11.712V42.24C48.7673 43.104 49.1353 43.536 49.8713 43.536C50.1913 43.536 50.5113 43.472 50.8313 43.344L52.0793 47.856C50.9273 48.464 49.6473 48.768 48.2393 48.768ZM60.333 48.768C58.477 48.768 57.005 48.208 55.917 47.088C54.861 45.968 54.333 44.448 54.333 42.528V12.432L60.861 11.712V42.24C60.861 43.104 61.229 43.536 61.965 43.536C62.285 43.536 62.605 43.472 62.925 43.344L64.173 47.856C63.021 48.464 61.741 48.768 60.333 48.768ZM73.1948 22.56V48H66.6668V22.56H73.1948ZM69.9308 9.6C71.0508 9.6 71.9628 9.968 72.6668 10.704C73.3708 11.44 73.7228 12.368 73.7228 13.488C73.7228 14.576 73.3708 15.488 72.6668 16.224C71.9628 16.928 71.0508 17.28 69.9308 17.28C68.7788 17.28 67.8508 16.928 67.1468 16.224C66.4428 15.488 66.0908 14.576 66.0908 13.488C66.0908 12.368 66.4428 11.44 67.1468 10.704C67.8508 9.968 68.7788 9.6 69.9308 9.6ZM90.3911 21.792C92.8871 21.792 94.7911 22.944 96.1031 25.248C97.4151 27.552 98.0711 30.88 98.0711 35.232C98.0711 37.984 97.7351 40.384 97.0631 42.432C96.3911 44.448 95.4311 46.016 94.1831 47.136C92.9351 48.224 91.4631 48.768 89.7671 48.768C87.7191 48.768 86.0231 47.872 84.6791 46.08V57.792L78.1511 58.512V22.56H83.9591L84.2471 25.44C85.0471 24.192 85.9431 23.28 86.9351 22.704C87.9591 22.096 89.1111 21.792 90.3911 21.792ZM87.8951 43.872C90.1991 43.872 91.3511 41.008 91.3511 35.28C91.3511 32.048 91.0951 29.808 90.5831 28.56C90.0711 27.312 89.3031 26.688 88.2791 26.688C86.9671 26.688 85.7671 27.68 84.6791 29.664V41.616C85.6071 43.12 86.6791 43.872 87.8951 43.872ZM120.684 34.704C120.684 35.056 120.636 35.904 120.54 37.248H107.532C107.66 39.744 108.092 41.472 108.828 42.432C109.596 43.392 110.652 43.872 111.996 43.872C112.924 43.872 113.788 43.712 114.588 43.392C115.388 43.04 116.252 42.512 117.18 41.808L119.868 45.408C117.564 47.648 114.796 48.768 111.564 48.768C108.14 48.768 105.516 47.6 103.692 45.264C101.868 42.928 100.956 39.664 100.956 35.472C100.956 31.28 101.82 27.952 103.548 25.488C105.276 23.024 107.756 21.792 110.988 21.792C114.028 21.792 116.396 22.896 118.092 25.104C119.82 27.28 120.684 30.48 120.684 34.704ZM114.348 32.832C114.348 30.528 114.092 28.864 113.58 27.84C113.068 26.784 112.22 26.256 111.036 26.256C109.948 26.256 109.116 26.768 108.54 27.792C107.996 28.816 107.66 30.624 107.532 33.216H114.348V32.832ZM161.445 48H155.013L154.581 34.368L154.485 31.44C154.453 30.448 154.421 29.296 154.389 27.984C154.357 26.672 154.341 25.232 154.341 23.664L154.389 20.928L150.261 44.4H143.877L139.509 20.928C139.605 23.04 139.653 25.136 139.653 27.216C139.653 29.584 139.605 32.016 139.509 34.512L139.077 48H132.741L134.805 14.784H143.205L147.189 37.872L150.837 14.784H159.381L161.445 48ZM184.246 34.704C184.246 35.056 184.198 35.904 184.102 37.248H171.094C171.222 39.744 171.654 41.472 172.39 42.432C173.158 43.392 174.214 43.872 175.558 43.872C176.486 43.872 177.35 43.712 178.15 43.392C178.95 43.04 179.814 42.512 180.742 41.808L183.43 45.408C181.126 47.648 178.358 48.768 175.126 48.768C171.702 48.768 169.078 47.6 167.254 45.264C165.43 42.928 164.518 39.664 164.518 35.472C164.518 31.28 165.382 27.952 167.11 25.488C168.838 23.024 171.318 21.792 174.55 21.792C177.59 21.792 179.958 22.896 181.654 25.104C183.382 27.28 184.246 30.48 184.246 34.704ZM177.91 32.832C177.91 30.528 177.654 28.864 177.142 27.84C176.63 26.784 175.782 26.256 174.598 26.256C173.51 26.256 172.678 26.768 172.102 27.792C171.558 28.816 171.222 30.624 171.094 33.216H177.91V32.832ZM193.646 48.768C191.79 48.768 190.318 48.208 189.23 47.088C188.174 45.968 187.646 44.448 187.646 42.528V12.432L194.174 11.712V42.24C194.174 43.104 194.542 43.536 195.278 43.536C195.598 43.536 195.918 43.472 196.238 43.344L197.486 47.856C196.334 48.464 195.054 48.768 193.646 48.768ZM209.105 21.792C212.369 21.792 214.913 22.928 216.737 25.2C218.561 27.472 219.473 30.832 219.473 35.28C219.473 39.536 218.545 42.848 216.689 45.216C214.865 47.584 212.337 48.768 209.105 48.768C205.873 48.768 203.329 47.616 201.473 45.312C199.649 43.008 198.737 39.664 198.737 35.28C198.737 30.928 199.649 27.6 201.473 25.296C203.297 22.96 205.841 21.792 209.105 21.792ZM209.105 26.736C207.857 26.736 206.945 27.392 206.369 28.704C205.793 29.984 205.505 32.176 205.505 35.28C205.505 38.416 205.793 40.64 206.369 41.952C206.945 43.232 207.857 43.872 209.105 43.872C210.353 43.872 211.265 43.216 211.841 41.904C212.417 40.592 212.705 38.384 212.705 35.28C212.705 32.144 212.417 29.936 211.841 28.656C211.265 27.376 210.353 26.736 209.105 26.736Z" fill="#212121"/>
<path d="M282.271 14.472L308.095 30.456V35.424L289.567 46.968L286.567 42.576L302.647 32.952L279.391 19.08L282.271 14.472ZM257.263 18.912L260.095 23.4L244.039 32.952L266.263 46.272L263.311 50.808L238.567 35.424V30.48L257.263 18.912ZM264.391 55.896L259.399 53.64L280.999 8.904L285.943 11.232L264.391 55.896Z" fill="url(#paint0_linear_34_17)"/>
<defs>
<linearGradient id="paint0_linear_34_17" x1="158.5" y1="0" x2="158.5" y2="63" gradientUnits="userSpaceOnUse">
<stop stop-color="#60B596"/>
<stop offset="1" stop-color="#4C9595"/>
</linearGradient>
</defs>
</svg>
