<svg width="39" height="39" viewBox="0 0 39 39" fill="none" xmlns="http://www.w3.org/2000/svg">
<path d="M19.3201 0C8.66725 0 0.000124676 8.66712 0.000124676 19.32C0.000124676 22.6464 0.859445 25.9174 2.48904 28.8036L0.0312046 37.5732C-0.0494354 37.8613 0.0286847 38.1704 0.237005 38.3846C0.397445 38.5501 0.615845 38.64 0.840125 38.64C0.907325 38.64 0.975365 38.6316 1.04172 38.6156L10.1944 36.3485C12.989 37.8487 16.1365 38.64 19.3201 38.64C29.973 38.64 38.6401 29.9729 38.6401 19.32C38.6401 8.66712 29.973 0 19.3201 0ZM29.0389 26.1374C28.6256 27.2815 26.6432 28.3256 25.6907 28.4659C24.8356 28.5911 23.7536 28.6448 22.5659 28.2719C21.846 28.0451 20.922 27.7444 19.7384 27.2395C14.7631 25.1177 11.514 20.1709 11.2654 19.8442C11.0176 19.5174 9.24013 17.1889 9.24013 14.779C9.24013 12.369 10.5211 11.1838 10.9764 10.6932C11.4317 10.2026 11.9684 10.08 12.2994 10.08C12.6304 10.08 12.9605 10.0842 13.2503 10.0976C13.5552 10.1128 13.9643 9.98256 14.3666 10.9385C14.7799 11.9196 15.772 14.3296 15.8946 14.5757C16.0189 14.821 16.1012 15.1074 15.9366 15.4342C15.772 15.7609 15.6896 15.965 15.441 16.2515C15.1924 16.5379 14.9202 16.8899 14.6968 17.11C14.4481 17.3544 14.1902 17.619 14.4792 18.1096C14.7682 18.6001 15.7636 20.2037 17.2386 21.5023C19.1328 23.1706 20.7313 23.688 21.2269 23.9333C21.7225 24.1786 22.0123 24.1374 22.3013 23.8106C22.5902 23.483 23.5411 22.3801 23.8712 21.8904C24.2014 21.4007 24.5323 21.4813 24.9876 21.6451C25.4429 21.8081 27.8814 22.9925 28.377 23.2378C28.8726 23.483 29.2036 23.6057 29.3279 23.8098C29.4522 24.0131 29.4522 24.9942 29.0389 26.1374Z" fill="#519C96"/>
</svg>
